/* XPM */
static const char * mtr_icon[] = {
"48 48 131 2",
"  	c #000000",
". 	c #020204",
"+ 	c #3E7E3C",
"@ 	c #62BA64",
"# 	c #4E9E4C",
"$ 	c #628664",
"% 	c #6EDA6C",
"& 	c #7A9E7C",
"* 	c #468E44",
"= 	c #6ACA6C",
"- 	c #224224",
"; 	c #56AE54",
"> 	c #326234",
", 	c #567E54",
"' 	c #7ABA7C",
") 	c #3A723C",
"! 	c #629E64",
"~ 	c #428644",
"{ 	c #6E926C",
"] 	c #7AEA7C",
"^ 	c #4A964C",
"/ 	c #62C264",
"( 	c #52A654",
"_ 	c #4A7E4C",
": 	c #82AE84",
"< 	c #366A34",
"[ 	c #5AB65C",
"} 	c #4A764C",
"| 	c #6AD26C",
"1 	c #8EC68C",
"2 	c #7A9A7C",
"3 	c #7AE27C",
"4 	c #82A684",
"5 	c #568E54",
"6 	c #568654",
"7 	c #3E7A3C",
"8 	c #6AC26C",
"9 	c #3E6A3C",
"0 	c #468244",
"a 	c #56A254",
"b 	c #4E8E4C",
"c 	c #5EAE5C",
"d 	c #86C684",
"e 	c #427244",
"f 	c #62A664",
"g 	c #769A74",
"h 	c #82F284",
"i 	c #5A9A5C",
"j 	c #5AA65C",
"k 	c #428244",
"l 	c #66BE64",
"m 	c #6A8E6C",
"n 	c #76DA74",
"o 	c #7E9E7C",
"p 	c #2A522C",
"q 	c #5E825C",
"r 	c #82BE84",
"s 	c #669E64",
"t 	c #6E966C",
"u 	c #529A54",
"v 	c #62C664",
"w 	c #4A824C",
"x 	c #366E34",
"y 	c #72D674",
"z 	c #427E3C",
"A 	c #5EBE5C",
"B 	c #52A254",
"C 	c #628A64",
"D 	c #4A924C",
"E 	c #6ACE6C",
"F 	c #5AB25C",
"G 	c #326634",
"H 	c #568254",
"I 	c #7ABE7C",
"J 	c #3A763C",
"K 	c #468A44",
"L 	c #7EEE7C",
"M 	c #4E9A4C",
"N 	c #56AA54",
"O 	c #86B684",
"P 	c #62B664",
"Q 	c #162A14",
"R 	c #529E54",
"S 	c #72DA74",
"T 	c #76A274",
"U 	c #4A8E4C",
"V 	c #264A24",
"W 	c #5AAE5C",
"X 	c #5EA25C",
"Y 	c #468644",
"Z 	c #729274",
"` 	c #7EEA7C",
" .	c #4E964C",
"..	c #66C264",
"+.	c #56A654",
"@.	c #4E7E4C",
"#.	c #8AB28C",
"$.	c #3A6A3C",
"%.	c #5EB65C",
"&.	c #527A54",
"*.	c #6ED26C",
"=.	c #92C694",
"-.	c #7E9A7C",
";.	c #7AE67C",
">.	c #86AA84",
",.	c #5E865C",
"'.	c #6AC66C",
").	c #3E6E3C",
"!.	c #5AA25C",
"~.	c #4E924C",
"{.	c #5EB25C",
"].	c #467244",
"^.	c #86F284",
"/.	c #5AAA5C",
"(.	c #76DE74",
"_.	c #829E84",
":.	c #325E34",
"<.	c #66A264",
"[.	c #729674",
"}.	c #66C664",
"|.	c #4E824C",
"1.	c #3A6E3C",
"2.	c #76D674",
"3.	c #427E44",
"4.	c #62BE64",
"5.	c #668A64",
"6.	c #6ECE6C",
"7.	c #366634",
"8.	c #5A825C",
"9.	c #7EBE7C",
"0.	c #3E763C",
"G 7.G G G G G 7.G < z  . .* k 1.G G G G G G 0.K x 7.7.7.7.7.< J Y D M D ) 7.7.7.7.7.7.< 7.7.7.7.",
"7.G 7.> > > 7.G ) D M K 7 < > > > > > > > > + * < G G G G G G 7.G x k * M K x G G G G G G G G G ",
"G G 7.G > > < ~ M D + G > > G > > 7.7.7.7.> 7 D x 7.7.7.7.7.G 7.7.G < ) ~ D M 7 7.7.7.7.7.7.7.7.",
"7.7.G > 7.< * M ~ x > G > G > > 7.> > > > G 7 * 1.G G G G G 7.G G 7.G G G J * M ~ < G G G G G G ",
"> G G > x D M k < G > G > > G > > G G G > 7.7 * x 7.7.7.7.G 7.7.G 7.7.7.7.G x ~ # Y < 7.7.7.7.7.",
"G > > x ^  .0.G G G 7.> > > > > G > > > 7.> 7 U 1.G G G G 7.G G 7.G G G G 7.G < k # K < G G G G ",
"G G <  .^ J G G 7.G 7.> G > > > > 7.7.> 7.7.7 * x 7.7.7.G 7.7.G 7.7.7.7.G 7.G G 7.+ B ~ < 7.7.7.",
"> < D M 7 G > > > G > G > > G > 7.> > G > > + U 1.G G G 7.G G 7.G G G G 7.G 7.7.G < k B + < G G ",
"G k # k < 7.7.G > G > > G > > > > G x k  .R F A N R U 7 x 7.G 7.7.7.7.G 7.G G 7.G G < K # J $.8.",
") ( K < > > G G 7.G G > > > G G + M +.B M D B W ^ ^ # ( +.^ ) G G G G 7.G 7.7.G 7.7.7.x u ! & o ",
"^  .x > > > > G 7.7.G > > > 0. .+.M K + ) < + D ) < J k * R +.D x 7.G 7.G G 7.G G G 7.e T =.& H ",
"+.+ < G G G 7.G > G G > G ~ ( B ~ ) G > G > 7 U < 7.7.G < J * B B 7 7.G 7.7.G 7.7.9 5.o Z s a ) ",
"D x > > > > > G > G G < K ( D 0.> G 7.> G 7.+ * < G 7.7.G G < + # ( + G G 7.G $.,.2 [.$ ).0.( k ",
"7 7.G G G G 7.G G > 7.K +.K x > G > > G > > 7 D < 7.G G 7.7.G 7.) M +.7 7.< &.[.2 C &.7.7.7.* B ",
"x 7.> > > > > 7.7.G k +.* < > > > G > 7.G G 7 * < 7.7.G G 7.G G G ) M B &.[.o m &.7.G 7.G 7.) %.",
"7.G 7.7.7.G 7.G G x B ^ ) > G > 7.> 7.> > > + D 7.G G 7.7.G 7.7.7.< w r #.{ , 9 7.7.7.G 7.G < ( ",
"> G G > 7.G > 7.7.* ( 7 G > > > > > G 7.1.z B F D 7 < G 7.G G G $.q o : I _ < > G G 7.G 7.G 7.~ ",
"7.7.> G > 7.7.> x +.* 7.> > G > G G < k # # +.[ B N ( k G 7.$.&.2 2 C |.B D < 7.7.7.G 7.G 7.G < ",
"> 7.> G > G G > ~ +.+ > > > > > > < K R K + K M 3.K B W K } Z -.m &.< < Y W ) G G 7.G 7.G 7.G 7.",
"> G G > > > 7.G # ^ ) > G > G > 7.~ # + < > 7 * < G J j d 4 { , $.G 7.G 7 F + 7.7.G 7.G 7.G 7.G ",
"> > > G G > 7.7.N * 7.> > > > > J D Y > G 7.3.D < ).$ 4 1 ' e 7.7.G G G ) # D < G G 7.G 7.G 7.7.",
"> 7.G > > G > x +.Y G > G > G > Y ~.x G > > 7 ~.8.-.2 5.i A 7 G G 7.7.7.< D # x 7.7.G 7.G 7.G G ",
"< < x x < x x + ; * x x x x x ) ^  .1.) 1.) 5 r o t 6 0.K A D J ) ) ) J 7  .F k 7 7 7 7 J 0.0.x ",
"D D * * D U U # A ( * * * K * * N W U U * K X 9.<.D K K R ..N U * * * * U ( A D K K K K U * K ) ",
"7 z z 7 7 z 7 K {.M 7 7 7 0.0.7 # B J 7 7 7 U R 0.7 7 7 D / D 0.0.7 0.J 7  .F + 0.J 0.J 0.J 0.< ",
"G > > > G > G < N K 7.> > G G > ~ D 1.G > > 3.U G G G G * A J G G G G 7.x D # x G 7.G 7.G 7.G G ",
"G G G > G > G < ( * 7.> > > > > J ^ K G G > + D 7.7.7.7 N ( < 7.7.7.G G ) B * < G 7.G 7.G 7.7.G ",
"G G > > > 7.G G #  .) G > > G > > k u 0 7.G z U G G 7 ( F + < G G G 7.7.7 W + < 7.G 7.G 7.G G 7.",
"> 7.G 7.> > > 7.~ B + > > > G G > x ~ #  .+ ~  .7 D ; ; k G 7.7.7.G G G K W x G 7.G 7.G 7.7.G 7.",
"7.G 7.> G 7.7.G < ( D < G > > > > > < z D # %.A +.B  .7 < K = G G 7.7.J B D < 7.G 7.G 7.G G 7.x ",
"G G G > > > > G G K ( 7 > > > > > G > G 1.+ R N K 7 x G ` (./.7.G G < K ; J G 7.G 7.G 7.7.G 7.Y ",
"7.G G > > G G G G x B M ) > > G G > G G > > + D G G 7.7.;.E 4.G 7.7.7 N K < 7.G 7.G 7.G G 7.< ; ",
"1.> G G > > > ` ] %.+ L 3 (.S S +.> /.L ;.(.S y 7.G 6.3 6.= = y ;...B # ` ] @ *.;.S B 7.G G J A ",
"z G > > G 7.7.% = '.n ~.K %.= = = y *.u  .4.= = {.7.c /.= = ..u M M B J y = E 6.!.b z G 7.< D W ",
"M ) G > > G G y = ..7.. . +.@ '.= @ V . . 1.}.= {.. G 7.6.= B . . . . 7.y = ..> . . . . G ) [ D ",
"[ + G G G > 7.S = a . . . . 4.E = z . . . G y = @ . . G (.6.a . . . . G y =  .. . . . . < ^ W J ",
"N B ) G G G 7.y =  .. . . 7.}.6.'.0.. . . G (.= %.. . ~ y = B . . . 7.G *.'.0 . . . G 7.7 [ K < ",
"+ [ D < > > G % = R . . > > }.6.}.0.. . +.+.3 = {.. . B (.E W . . G G 7.y = K . . G 7.x +.( J G ",
"< D {.Y 7.> 7.y = u . . > > ..6.'.0.. . K U (.= %.. . + y = +.. . 7.G 7.y }.Y . . G < ^ F z 7.7.",
"> x B ; + G > y = ( . . G > }.6.}.0.. . > G (.= {.. . G (.= {.. . G 7.G y = k . . < * [ U < G G ",
"> G J +.N + G S '.R . . > G }.6.}.0.. . G G (.= [ . . G *.= }.J . G 7.G *.= ~ . . ~ %.^ x 7.7.7.",
"G > G 7 +.N z y E B . . G > ..6.'.0.. . > > 3 = {.. . 7.'.= = = (.3 p 7.y '.0 . . {.# ) 7.G G G ",
"G > G G 7 ( ; @ N ~.. . > > 4.W +.1.. . G 7.= /.B . . G > {.l 4.%.R G 7.@ /.+ . . M ) G 7.7.7.7.",
"> 7.> > G 0.# %.^ . . . > > > > > . . > > > + D . . . 7.7.7.- - Q . . G < . . . . ) G 7.G G G G ",
"G G 7.> 7.7.) ^ F . . < G > > > G . . 7.G > 3.D 7.. G G G 7.7.. . . . x D F . . < 7.G 7.7.7.7.7.",
"> 7.G G > G G < ~ ( [ B + < > G > > > > > 7.+ U G 7.7.7.7.G G 7.G x K W [ R + < G G 7.G G G G G ",
"> > > G > > > > 7.J D +.[ ; K x G 7.G 7.> 7.) z G G G G 7.7.< 0. .F F B ~ 1.G 7.7.G 7.7.7.7.7.7.",
"G 7.7.> > G 7.G > 7.< M E | +.7 > > > > G > x ) 7.> 7.7.G G < k F % / ~ G G 7.G G 7.G G G G G G "};
